<svg width="16" height="17" viewBox="0 0 16 17" fill="none" xmlns="http://www.w3.org/2000/svg">
<path fill-rule="evenodd" clip-rule="evenodd" d="M7.99334 0.459961C5.82182 0.459961 5.54871 0.459961 4.69609 0.506686C3.85012 0.546736 3.26395 0.680236 2.76436 0.880487C2.23147 1.08074 1.77852 1.36109 1.33222 1.79496C0.905912 2.26221 0.632806 2.70276 0.426311 3.23009C0.226478 3.73739 0.0932556 4.32479 0.0532889 5.16584C0 6.03359 0 6.3006 0 8.46997C0 10.6394 0 10.9197 0.0466278 11.7741C0.0865945 12.6218 0.219817 13.2092 0.41965 13.7099C0.619484 14.2439 0.899251 14.6911 1.33888 15.1383C1.80516 15.5522 2.25812 15.8258 2.78435 16.0328C3.29059 16.233 3.87677 16.3665 4.71607 16.4066C5.58202 16.4533 5.84846 16.46 8.01998 16.46C10.1915 16.46 10.4713 16.46 11.3239 16.4066C12.1632 16.3665 12.7494 16.233 13.2556 16.0328C13.7885 15.8325 14.2281 15.5522 14.6744 15.1116C15.1074 14.6577 15.3805 14.2105 15.587 13.6832C15.7868 13.1759 15.9201 12.5885 15.9534 11.7474C15.9933 10.8797 16 10.6127 16 8.4366C16 6.26054 16 5.98687 15.9534 5.13247C15.9134 4.29809 15.7802 3.71069 15.5803 3.19672C15.3805 2.66271 15.0874 2.22884 14.6478 1.78161C14.1882 1.32771 13.7552 1.06071 13.229 0.860462C12.7227 0.660211 12.1366 0.526711 11.2973 0.479986C10.438 0.459961 10.1715 0.459961 7.99334 0.459961ZM7.99204 1.90137C10.1236 1.90137 10.3767 1.90137 11.2227 1.94809C12.002 1.98814 12.4217 2.11497 12.7081 2.22844C13.0811 2.36194 13.3476 2.54217 13.6273 2.82919C13.9071 3.09619 14.0803 3.36319 14.2268 3.74367C14.3334 4.0307 14.46 4.45122 14.4933 5.2322C14.5399 6.07992 14.5466 6.33357 14.5466 8.46958C14.5466 10.6056 14.5466 10.8592 14.4999 11.707C14.46 12.4879 14.3334 12.9085 14.2202 13.1955C14.087 13.5693 13.9071 13.8363 13.6207 14.1166C13.3542 14.397 13.0878 14.5705 12.7081 14.7174C12.4217 14.8242 12.002 14.951 11.2227 14.9844C10.3767 15.0311 10.1236 15.0378 7.99204 15.0378C5.86048 15.0378 5.60736 15.0378 4.7614 14.9911C3.98205 14.951 3.5624 14.8242 3.27597 14.7107C2.90295 14.5772 2.6365 14.397 2.35673 14.11C2.07697 13.843 1.90378 13.576 1.75723 13.1955C1.65066 12.9085 1.52409 12.4879 1.49079 11.707C1.44416 10.8592 1.4375 10.6056 1.4375 8.46958C1.4375 6.33357 1.4375 6.07992 1.48413 5.2322C1.52409 4.45122 1.65066 4.0307 1.76389 3.74367C1.89712 3.36987 2.07697 3.10287 2.36339 2.82252C2.62984 2.54217 2.89628 2.36862 3.27597 2.22177C3.5624 2.11497 3.98205 1.98814 4.7614 1.95477C5.60736 1.90804 5.86048 1.90137 7.99204 1.90137ZM3.89062 8.4702C3.89062 6.2007 5.72909 4.3584 7.99387 4.3584C10.2587 4.3584 12.0971 6.2007 12.0971 8.4702C12.0971 10.7397 10.2587 12.582 7.99387 12.582C5.72909 12.582 3.89062 10.7397 3.89062 8.4702ZM7.99257 11.1398C6.52713 11.1398 5.32812 9.93831 5.32812 8.46981C5.32812 7.00131 6.52713 5.7998 7.99257 5.7998C9.45802 5.7998 10.657 7.00131 10.657 8.46981C10.657 9.93831 9.45802 11.1398 7.99257 11.1398ZM12.2607 5.15125C12.7869 5.15125 13.2199 4.73073 13.2199 4.19673L13.2532 4.16335C13.2532 3.63602 12.8202 3.20215 12.2873 3.20215C11.7544 3.20215 11.3281 3.65605 11.3281 4.19005C11.3281 4.72405 11.7278 5.15125 12.2607 5.15125Z" fill="white"/>
</svg>
